<svg xmlns="http://www.w3.org/2000/svg" width="192" height="192"><path fill="#8bc533" d="m14 92 1.727.582a535 535 0 0 0 14.148 4.543c3.053.931 6.097 1.866 9.125 2.875.773 2.45.773 2.45 1.375 5.688C44.438 124.676 51.922 138.8 67 151l2.398 2.074c3.022 2.237 6.02 3.642 9.477 5.113l3.555 1.543c12.563 4.468 30.513 4.111 42.586-1.574a303 303 0 0 0 10.319-5.285 67 67 0 0 1 4.08-1.934c1.942-.914 1.942-.914 2.585-3.937h2l1-3 2.375-2.312c2.682-2.746 4.084-5.201 5.625-8.688 4.919.618 8.847 2.753 13.188 5l2.193 1.117c1.875.956 3.747 1.92 5.619 2.883l2 1c-4.294 14.656-15.629 24.683-28.484 32.063-21.863 11.475-46.293 15.35-70.426 9.195-23.674-7.88-42.87-25.909-54.848-47.414C14.93 121.998 13.362 108.304 14 92"/><path fill="#8cc634" d="M156 22v2l1.785.777C164.135 28.283 169.567 36.26 172 43c-.117 2.105-.117 2.105-1 4-2.758 2.09-5.895 3.488-9 5l-1.977 1.02c-2.701 1.303-4.76 1.986-7.773 1.917-2.766-1.152-3.767-2.36-5.25-4.937v-2l-3-1v-2l-3-1v-2c-.56-.27-1.121-.539-1.7-.816-2.452-1.262-4.767-2.67-7.113-4.121-14.195-8.518-29.983-10.234-46.125-6.876C75.863 32.928 67.783 37.879 60 45l-1 2h-2l-.809 1.742c-1.232 2.335-2.64 4.297-4.254 6.383-2.17 2.811-2.17 2.811-3.937 5.875-4.892-.48-7.884-1.403-12-4a691 691 0 0 0-5.812-3.187l-2.958-1.606L25 51c2.4-12.492 14.946-23.515 24.813-30.75C81.352-.472 125.675-3.615 156 22"/><path fill="#fefefe" d="M91 91c2.338-.34 2.338-.34 5.227-.293l3.125.03c1.08.024 2.16.05 3.273.076l3.297.04q4.039.054 8.078.147c1.33 2.66 1.12 4.666 1.114 7.643v3.58l-.016 3.879-.005 3.96q-.006 5.212-.024 10.425-.014 5.319-.02 10.638-.016 10.438-.049 20.875c-6.414 3.801-10.455 4.94-18 4-2.673-.736-4.556-1.619-7-3-1.3-2.598-1.134-4.502-1.145-7.412l-.02-3.428-.003-3.719-.01-3.803q-.008-3.99-.007-7.977c0-3.408-.014-6.815-.031-10.223-.014-3.249-.013-6.498-.014-9.747l-.022-3.712.01-3.438-.005-3.03C89 94 89 94 91 91m-18.5 13.813 2.957-.038 2.824-.005 2.596-.013C83 105 83 105 85 107c.24 1.91.24 1.91.227 4.266v2.67l-.032 2.884-.008 2.951c-.011 3.118-.037 6.236-.062 9.354q-.016 3.165-.027 6.332Q85.064 143.229 85 151c-5.657-.6-9.152-1.199-14-4.437l-2.875-1.872L66 143v-2h-2c-2.8-2.744-3.918-4.403-4.454-8.322l.063-3.729.018-1.996c.022-2.09.072-4.177.123-6.266q.03-2.133.055-4.267c.044-3.474.113-6.947.195-10.42 3.77-1.885 8.352-1.185 12.5-1.187m59.438-.063 3.115-.062 2.974-.016 2.742-.028L143 105c3.365 5.048 2.37 10.947 2.375 16.875l.074 3.879.012 3.738.025 3.418c-.689 4.38-2.793 6.657-6.114 9.468a339 339 0 0 1-5.185 3.372l-1.79 1.207-1.792 1.152-1.589 1.03c-2.923 1.248-5.876 1.495-9.016 1.861q-.037-9.585-.055-19.171-.008-3.264-.02-6.527c-.013-3.12-.018-6.24-.023-9.36l-.015-2.968v-2.73l-.007-2.415c.327-4.975 8.344-3.06 12.058-3.079M20 58c3.976.467 6.915 1.854 10.375 3.813l2.887 1.62c.903.518 1.807 1.034 2.738 1.567l2.27 1.285A759 759 0 0 1 43 69c-.623 7.407-1.705 14.682-3 22-5.188 1.877-8.83-.247-13.562-2.375q-2.25-.985-4.504-1.96l-1.999-.893C17.977 84.991 16.055 84.464 14 84c.602-20.602.602-20.602 6-26"/><path fill="#9ecd5b" d="m48 22 1 2c-8.21 9.534-8.21 9.534-12 13h-2l-1 3-1.812 1.75C29.428 44.589 27.875 47.518 26 51l-1-3c5.335-9.883 13.637-19.758 23-26"/><path fill="#b3da84" d="M67 152q3.207 1.598 6.402 3.219l2.535 1.281 2.528 1.281c4.24 2.038 7.905 3.447 12.617 3.852l2.822.254 2.909.238 2.966.262q3.61.316 7.221.613v2H90v-2l-2.48.238c-4.596-.31-7.792-1.951-11.832-4.05l-2.206-1.08c-5.352-2.72-5.352-2.72-6.482-6.108"/><path fill="#b6dd7d" d="m161 162 2 1c-5.713 5.437-11.678 10.841-19 14l-3-1c4.988-4.344 10.71-7.904 17-10l1-3z"/><path fill="#b0d776" d="M134 181a2224 2224 0 0 1-7.812 2.5l-2.237.723c-3.084.976-5.696 1.777-8.951 1.777v-3q3.622-.796 7.25-1.562l2.066-.46c3.502-.73 6.287-1.3 9.684.022"/><path fill="#b4da7a" d="M153 133c4.143.598 7.182 2.007 10.813 4.063l2.957 1.66L169 140c-2 1-2 1-5.125.063L161 139v-2c-3.343-.074-5.804-.065-9 1z"/><path fill="#b6dd7f" d="M36 33c0 3.219-.365 4.303-2 7l-1.875 1.813C29.397 44.62 27.855 47.556 26 51l-1-3a76 76 0 0 1 4.313-6.562l1.263-1.788C32.27 37.277 33.936 35.064 36 33"/><path fill="#b6e17b" d="M67 152q3.242 1.617 6.473 3.254l2.59 1.309 2.597 1.316c2.405 1.212 2.405 1.212 5.34 2.121v2c-6.148-1.75-12.008-3.878-17-8z"/><path fill="#a9da70" d="M83 6v3l-14 3 1-3c2.18-.95 2.18-.95 4.875-1.687l2.68-.762C80 6 80 6 83 6"/><path fill="#b6da7d" d="M164 51c-8.035 4.079-8.035 4.079-12.062 3.75L150 54v-2l1.563.688c4.98.638 7.47-3.344 12.437-1.688"/><path fill="#c1e36e" d="M33 151c3.215 1.072 4.085 1.884 6.25 4.375l1.64 1.836L42 159l-1 3a819 819 0 0 1-4-4.375l-2.25-2.46C33 153 33 153 33 151"/><path fill="#bbdf7e" d="M138 40h4c2.478 2.62 3.857 4.57 5 8l-3-1v-2l-3-1v-2l-3-1z"/><path fill="#aad976" d="M18 123c2.771 2.346 3.52 4.148 4.188 7.688l.48 2.449L23 135c-3.297-1.648-3.758-4.67-5-8z"/><path fill="#b5e061" d="M125 32c6.625.75 6.625.75 10 3l-1 3-9-5z"/></svg>